name Walk2.mot
datacolumns 19
datarows 27
range 3.47300000 3.49900000
endheader

                time	   L_ground_force_vx	   L_ground_force_vy	   L_ground_force_vz	   L_ground_force_px	   L_ground_force_py	   L_ground_force_pz	   R_ground_force_vx	   R_ground_force_vy	   R_ground_force_vz	   R_ground_force_px	   R_ground_force_py	   R_ground_force_pz	   L_ground_torque_x	   L_ground_torque_y	   L_ground_torque_z	   R_ground_torque_x	   R_ground_torque_y	   R_ground_torque_z	
          3.47300000	         -5.36503449	        887.78776752	        -57.11184233	          0.17298329	          0.00000000	          0.13593743	          0.00000000	          0.00000000	          0.00000000	          0.00000000	          0.00000000	          0.00000000	          0.00000000	         12.83745749	          0.00000000	          0.00000000	          0.00000000	          0.00000000	
          3.47400000	         -5.14242595	        887.76807888	        -56.80377337	          0.17299750	          0.00000000	          0.13601183	          0.00000000	          0.00000000	          0.00000000	          0.00000000	          0.00000000	          0.00000000	          0.00000000	         12.76679099	          0.00000000	          0.00000000	          0.00000000	          0.00000000	
          3.47500000	         -4.92414796	        887.70397752	        -56.51127923	          0.17300312	          0.00000000	          0.13607974	          0.00000000	          0.00000000	          0.00000000	          0.00000000	          0.00000000	          0.00000000	          0.00000000	         12.71180606	          0.00000000	          0.00000000	          0.00000000	          0.00000000	
          3.47600000	         -4.71213866	        887.61121716	        -56.24182255	          0.17304890	          0.00000000	          0.13610552	          0.00000000	          0.00000000	          0.00000000	          0.00000000	          0.00000000	          0.00000000	          0.00000000	         12.67429453	          0.00000000	          0.00000000	          0.00000000	          0.00000000	
          3.47700000	         -4.50448708	        887.55112937	        -55.98955897	          0.17318266	          0.00000000	          0.13608847	          0.00000000	          0.00000000	          0.00000000	          0.00000000	          0.00000000	          0.00000000	          0.00000000	         12.64654144	          0.00000000	          0.00000000	          0.00000000	          0.00000000	
          3.47800000	         -4.29460046	        887.55791373	        -55.74132664	          0.17340934	          0.00000000	          0.13604831	          0.00000000	          0.00000000	          0.00000000	          0.00000000	          0.00000000	          0.00000000	          0.00000000	         12.61599220	          0.00000000	          0.00000000	          0.00000000	          0.00000000	
          3.47900000	         -4.07321509	        887.60090392	        -55.48116278	          0.17367799	          0.00000000	          0.13600085	          0.00000000	          0.00000000	          0.00000000	          0.00000000	          0.00000000	          0.00000000	          0.00000000	         12.57262036	          0.00000000	          0.00000000	          0.00000000	          0.00000000	
          3.48000000	         -3.83652149	        887.61744896	        -55.19846965	          0.17391535	          0.00000000	          0.13595560	          0.00000000	          0.00000000	          0.00000000	          0.00000000	          0.00000000	          0.00000000	          0.00000000	         12.51344639	          0.00000000	          0.00000000	          0.00000000	          0.00000000	
          3.48100000	         -3.59263728	        887.56227357	        -54.89324112	          0.17406763	          0.00000000	          0.13591660	          0.00000000	          0.00000000	          0.00000000	          0.00000000	          0.00000000	          0.00000000	          0.00000000	         12.44153220	          0.00000000	          0.00000000	          0.00000000	          0.00000000	
          3.48200000	         -3.35784475	        887.45125578	        -54.57335940	          0.17413621	          0.00000000	          0.13588346	          0.00000000	          0.00000000	          0.00000000	          0.00000000	          0.00000000	          0.00000000	          0.00000000	         12.36050536	          0.00000000	          0.00000000	          0.00000000	          0.00000000	
          3.48300000	         -3.14560696	        887.36453165	        -54.25197159	          0.17418473	          0.00000000	          0.13586305	          0.00000000	          0.00000000	          0.00000000	          0.00000000	          0.00000000	          0.00000000	          0.00000000	         12.27150359	          0.00000000	          0.00000000	          0.00000000	          0.00000000	
          3.48400000	         -2.95834228	        887.36489224	        -53.94470085	          0.17428150	          0.00000000	          0.13586644	          0.00000000	          0.00000000	          0.00000000	          0.00000000	          0.00000000	          0.00000000	          0.00000000	         12.17724691	          0.00000000	          0.00000000	          0.00000000	          0.00000000	
          3.48500000	         -2.78944959	        887.43869508	        -53.66324832	          0.17444090	          0.00000000	          0.13589017	          0.00000000	          0.00000000	          0.00000000	          0.00000000	          0.00000000	          0.00000000	          0.00000000	         12.08540711	          0.00000000	          0.00000000	          0.00000000	          0.00000000	
          3.48600000	         -2.62858010	        887.54754864	        -53.41096463	          0.17462979	          0.00000000	          0.13591545	          0.00000000	          0.00000000	          0.00000000	          0.00000000	          0.00000000	          0.00000000	          0.00000000	         12.00449833	          0.00000000	          0.00000000	          0.00000000	          0.00000000	
          3.48700000	         -2.46034315	        887.67184293	        -53.18420235	          0.17479656	          0.00000000	          0.13592427	          0.00000000	          0.00000000	          0.00000000	          0.00000000	          0.00000000	          0.00000000	          0.00000000	         11.93907650	          0.00000000	          0.00000000	          0.00000000	          0.00000000	
          3.48800000	         -2.26706915	        887.78282198	        -52.97782538	          0.17489681	          0.00000000	          0.13591107	          0.00000000	          0.00000000	          0.00000000	          0.00000000	          0.00000000	          0.00000000	          0.00000000	         11.89109779	          0.00000000	          0.00000000	          0.00000000	          0.00000000	
          3.48900000	         -2.04312784	        887.84846730	        -52.79091905	          0.17492988	          0.00000000	          0.13588538	          0.00000000	          0.00000000	          0.00000000	          0.00000000	          0.00000000	          0.00000000	          0.00000000	         11.86177179	          0.00000000	          0.00000000	          0.00000000	          0.00000000	
          3.49000000	         -1.80071735	        887.88646567	        -52.62716153	          0.17495173	          0.00000000	          0.13586536	          0.00000000	          0.00000000	          0.00000000	          0.00000000	          0.00000000	          0.00000000	          0.00000000	         11.84791294	          0.00000000	          0.00000000	          0.00000000	          0.00000000	
          3.49100000	         -1.55800834	        887.96240295	        -52.48815683	          0.17503693	          0.00000000	          0.13586648	          0.00000000	          0.00000000	          0.00000000	          0.00000000	          0.00000000	          0.00000000	          0.00000000	         11.83934784	          0.00000000	          0.00000000	          0.00000000	          0.00000000	
          3.49200000	         -1.32681951	        888.12150517	        -52.36789554	          0.17522139	          0.00000000	          0.13589305	          0.00000000	          0.00000000	          0.00000000	          0.00000000	          0.00000000	          0.00000000	          0.00000000	         11.82417079	          0.00000000	          0.00000000	          0.00000000	          0.00000000	
          3.49300000	         -1.10730452	        888.34075552	        -52.25586163	          0.17547536	          0.00000000	          0.13593453	          0.00000000	          0.00000000	          0.00000000	          0.00000000	          0.00000000	          0.00000000	          0.00000000	         11.79570702	          0.00000000	          0.00000000	          0.00000000	          0.00000000	
          3.49400000	         -0.89031974	        888.56038098	        -52.14134466	          0.17573396	          0.00000000	          0.13597169	          0.00000000	          0.00000000	          0.00000000	          0.00000000	          0.00000000	          0.00000000	          0.00000000	         11.75245238	          0.00000000	          0.00000000	          0.00000000	          0.00000000	
          3.49500000	         -0.66906522	        888.75852005	        -52.01311880	          0.17595542	          0.00000000	          0.13599039	          0.00000000	          0.00000000	          0.00000000	          0.00000000	          0.00000000	          0.00000000	          0.00000000	         11.69398491	          0.00000000	          0.00000000	          0.00000000	          0.00000000	
          3.49600000	         -0.44413099	        888.97367923	        -51.86554685	          0.17614371	          0.00000000	          0.13598837	          0.00000000	          0.00000000	          0.00000000	          0.00000000	          0.00000000	          0.00000000	          0.00000000	         11.62224351	          0.00000000	          0.00000000	          0.00000000	          0.00000000	
          3.49700000	         -0.21539036	        889.25070505	        -51.70935143	          0.17632169	          0.00000000	          0.13597442	          0.00000000	          0.00000000	          0.00000000	          0.00000000	          0.00000000	          0.00000000	          0.00000000	         11.54543242	          0.00000000	          0.00000000	          0.00000000	          0.00000000	
          3.49800000	          0.01990993	        889.59103505	        -51.56653053	          0.17649940	          0.00000000	          0.13596573	          0.00000000	          0.00000000	          0.00000000	          0.00000000	          0.00000000	          0.00000000	          0.00000000	         11.47432663	          0.00000000	          0.00000000	          0.00000000	          0.00000000	
          3.49900000	          0.26312931	        889.95338538	        -51.45391630	          0.17666890	          0.00000000	          0.13597485	          0.00000000	          0.00000000	          0.00000000	          0.00000000	          0.00000000	          0.00000000	          0.00000000	         11.41481008	          0.00000000	          0.00000000	          0.00000000	          0.00000000	
